<svg version="1.1" id="Layer_1" xmlns="http://www.w3.org/2000/svg" xmlns:xlink="http://www.w3.org/1999/xlink" x="0px" y="0px"
	 width="500px" height="500px" viewBox="0 0 500 500" enable-background="new 0 0 500 500" xml:space="preserve">
<path class="skyline" fill="none" stroke="#FFFFFF" stroke-width="7" stroke-linecap="round" stroke-linejoin="round" stroke-miterlimit="10" d="
	M10.375,415.897c0,0,7.276,1.194,6.764-8.514l0.302-104.487h32.204V415.91L59,415.944v-40.118h16.291v40.084h10.418v-155.27
	c0,0,2.404-9.839,9.617-10.64h16.028c0,0,9.146,2.999,8.815,10.64v133.844h12.021v-88.383l40.886,1.227l0.256,51.338h16
	l-0.242-112.67L229.5,245l0.463,149.484l12.702,0.182L243.5,282.5l18.68-11.803l16.67,12.966v38.469l16.926-0.716
	c0,0,23.225-35.416,9.725-116.916c0,0,2.201-2.582-21.842-8.993c0,0-1.658-7.507-16.83-7.213c0,0,11.763,1.333,15.396-9.094
	l21.942-6.034l9.333-8.113l2.831-29.653c0,0,1.669,26.6,4.997,30.454l7.716,6.867l27.546,9.963c0,0,1.604,5.609,12.823,4.809
	c0,0-15.913,3.507-21.413,9.507c-6.597,7.196-19.833,1.167-19.5,8.5c0,0-8,37,3.246,77.361c3.526,12.656,5.511,3.796,5.511,3.796
	L360,287l1,13l52.491-0.309l3.205,72.93l7.213-0.621V265.23c0,0,20.838-46.482,24.043-66.521s0-7.213,0-7.213
	s16.025,60.274,25.646,69.408V415.91h7.212v-85.766h8.816"/>
</svg>
